<svg xmlns="http://www.w3.org/2000/svg" xmlns:xlink="http://www.w3.org/1999/xlink" viewBox="0,0,256,256" width="200px" height="200px" fill-rule="nonzero"><g fill="none" fill-rule="nonzero" stroke="none" stroke-width="1" stroke-linecap="butt" stroke-linejoin="miter" stroke-miterlimit="10" stroke-dasharray="" stroke-dashoffset="0" font-family="none" font-weight="none" font-size="none" text-anchor="none" style="mix-blend-mode: normal"><g transform="scale(2.56,2.56)"><path d="M12.5,53h-1c-0.276,0 -0.5,-0.224 -0.5,-0.5c0,-0.276 0.224,-0.5 0.5,-0.5h1c0.276,0 0.5,0.224 0.5,0.5c0,0.276 -0.223,0.5 -0.5,0.5z" fill="#ffffff"></path><path d="M9.5,53h-2c-0.276,0 -0.5,-0.224 -0.5,-0.5c0,-0.276 0.224,-0.5 0.5,-0.5h2c0.276,0 0.5,0.224 0.5,0.5c0,0.276 -0.223,0.5 -0.5,0.5z" fill="#ffffff"></path><path d="M87.215,56.71c1.135,-2.155 1.785,-4.605 1.785,-7.21c0,-6.621 -4.159,-12.257 -10.001,-14.478c0,-0.007 0.001,-0.014 0.001,-0.022c0,-11.598 -9.402,-21 -21,-21c-9.784,0 -17.981,6.701 -20.313,15.757c-1.476,-0.485 -3.049,-0.757 -4.687,-0.757c-7.692,0 -14.023,5.793 -14.89,13.252c-5.204,1.101 -9.11,5.717 -9.11,11.248c0,6.351 5.149,11.5 11.5,11.5c0.177,0 0.352,-0.012 0.526,-0.022c-0.004,0.175 -0.026,0.346 -0.026,0.522c0,11.322 9.178,20.5 20.5,20.5c6.437,0 12.175,-2.972 15.934,-7.614c2.178,2.225 5.206,3.614 8.566,3.614c4.65,0 8.674,-2.65 10.666,-6.518c1.052,0.335 2.171,0.518 3.334,0.518c6.075,0 11,-4.925 11,-11c0,-3.311 -1.47,-6.273 -3.785,-8.29z" fill="#ffffff"></path><path d="M35.25,71c-0.138,0 -0.25,-0.112 -0.25,-0.25c0,-1.223 0.995,-2.218 2.218,-2.218c0.034,0.009 0.737,-0.001 1.244,0.136c0.133,0.036 0.212,0.173 0.176,0.306c-0.036,0.134 -0.173,0.213 -0.306,0.176c-0.444,-0.12 -1.1,-0.12 -1.113,-0.118c-0.948,0 -1.719,0.771 -1.719,1.718c0,0.138 -0.112,0.25 -0.25,0.25z" fill="#000000"></path><path d="M33.5,75.5c0,0 1.567,0 3.5,0c1.933,0 3.5,-1.567 3.5,-3.5c0,-1.781 -1.335,-3.234 -3.055,-3.455c0.028,-0.179 0.055,-0.358 0.055,-0.545c0,-1.933 -1.567,-3.5 -3.5,-3.5c-1.032,0 -1.95,0.455 -2.59,1.165c-0.384,-1.808 -1.987,-3.165 -3.91,-3.165c-2.209,0 -4,1.791 -4,4c0,0.191 0.03,0.374 0.056,0.558c-0.428,-0.344 -0.964,-0.558 -1.556,-0.558c-1.228,0 -2.245,0.887 -2.455,2.055c-0.179,-0.028 -0.358,-0.055 -0.545,-0.055c-1.933,0 -3.5,1.567 -3.5,3.5c0,1.933 1.567,3.5 3.5,3.5c1.933,0 7.5,0 7.5,0v0.5h7z" fill="#f7f7f7"></path><circle cx="28.5" cy="75.5" r="0.5" fill="#000000"></circle><path d="M37,76h-3.5c-0.276,0 -0.5,-0.224 -0.5,-0.5c0,-0.276 0.224,-0.5 0.5,-0.5h3.5c1.654,0 3,-1.346 3,-3c0,-1.496 -1.125,-2.768 -2.618,-2.959c-0.134,-0.018 -0.255,-0.088 -0.336,-0.196c-0.081,-0.108 -0.115,-0.244 -0.094,-0.377c0.023,-0.154 0.048,-0.308 0.048,-0.468c0,-1.654 -1.346,-3 -3,-3c-0.85,0 -1.638,0.355 -2.219,1c-0.125,0.139 -0.321,0.198 -0.5,0.148c-0.182,-0.049 -0.321,-0.195 -0.36,-0.379c-0.341,-1.604 -1.78,-2.769 -3.421,-2.769c-1.93,0 -3.5,1.57 -3.5,3.5c0,0.143 0.021,0.28 0.041,0.418c0.029,0.203 -0.063,0.438 -0.242,0.54c-0.179,0.102 -0.396,0.118 -0.556,-0.01c-0.365,-0.293 -0.794,-0.448 -1.243,-0.448c-0.966,0 -1.792,0.691 -1.963,1.644c-0.048,0.267 -0.296,0.446 -0.569,0.405c-0.154,-0.024 -0.308,-0.049 -0.468,-0.049c-1.654,0 -3,1.346 -3,3c0,1.654 1.346,3 3,3h7.5c0.276,0 0.5,0.224 0.5,0.5c0,0.276 -0.224,0.5 -0.5,0.5h-7.5c-2.206,0 -4,-1.794 -4,-4c0,-2.206 1.794,-4 4,-4c0.059,0 0.116,0.002 0.174,0.006c0.414,-1.186 1.537,-2.006 2.826,-2.006c0.349,0 0.689,0.061 1.011,0.18c0.165,-2.333 2.115,-4.18 4.489,-4.18c1.831,0 3.466,1.127 4.153,2.774c0.68,-0.498 1.502,-0.774 2.347,-0.774c2.206,0 4,1.794 4,4c0,0.048 -0.001,0.095 -0.004,0.142c1.743,0.448 3.004,2.027 3.004,3.858c0,2.206 -1.794,4 -4,4z" fill="#000000"></path><path d="M31.5,75c-0.159,0 -0.841,0 -1,0c-0.276,0 -0.5,0.224 -0.5,0.5c0,0.276 0.224,0.5 0.5,0.5c0.159,0 0.841,0 1,0c0.276,0 0.5,-0.224 0.5,-0.5c0,-0.276 -0.224,-0.5 -0.5,-0.5z" fill="#000000"></path><path d="M29.989,64.011v-28.022c0,-3.866 3.134,-7 7,-7h28.023c3.866,0 7,3.134 7,7v28.023c0,3.866 -3.134,7 -7,7h-28.023c-3.866,-0.001 -7,-3.135 -7,-7.001z" fill="#ffffff"></path><path d="M38.694,40.394c-0.561,0.185 -0.561,0.977 0,1.162c1.291,0.424 2.303,1.437 2.728,2.728c0.185,0.561 0.977,0.561 1.162,0c0.424,-1.291 1.437,-2.303 2.728,-2.728c0.561,-0.185 0.561,-0.977 0,-1.162c-1.291,-0.424 -2.303,-1.437 -2.728,-2.728c-0.185,-0.561 -0.977,-0.561 -1.162,0c-0.424,1.291 -1.437,2.304 -2.728,2.728z" fill="#ffffff"></path><path d="M42.003,45.204c-0.488,0 -0.903,-0.3 -1.056,-0.764c-0.373,-1.135 -1.273,-2.036 -2.409,-2.409c-0.464,-0.153 -0.764,-0.567 -0.764,-1.056c0,-0.488 0.3,-0.903 0.764,-1.056v0c1.136,-0.374 2.036,-1.274 2.409,-2.409c0.152,-0.464 0.567,-0.764 1.056,-0.764c0.489,0 0.903,0.3 1.056,0.764c0.373,1.136 1.273,2.036 2.409,2.409c0.464,0.153 0.764,0.567 0.764,1.056c0,0.489 -0.3,0.903 -0.764,1.056c-1.136,0.373 -2.036,1.273 -2.409,2.408c-0.153,0.465 -0.568,0.765 -1.056,0.765zM38.851,40.869c-0.02,0.006 -0.076,0.025 -0.076,0.105c0,0.081 0.058,0.1 0.076,0.106c1.436,0.472 2.574,1.611 3.046,3.046c0.007,0.019 0.025,0.077 0.106,0.077c0.081,0 0.1,-0.058 0.106,-0.077c0.471,-1.436 1.609,-2.574 3.046,-3.046c0.019,-0.006 0.076,-0.025 0.076,-0.106c0,-0.081 -0.058,-0.1 -0.076,-0.105c-1.436,-0.472 -2.574,-1.61 -3.046,-3.046c-0.007,-0.019 -0.025,-0.077 -0.106,-0.077c-0.081,0 -0.1,0.058 -0.106,0.077c-0.471,1.435 -1.611,2.573 -3.046,3.046z" fill="#000000"></path><path d="M58.13,39.694c-0.226,-0.687 -1.199,-0.687 -1.425,0l-1.058,3.216c-0.521,1.584 -1.763,2.826 -3.347,3.347l-3.216,1.058c-0.688,0.226 -0.688,1.199 0,1.425l3.216,1.058c1.584,0.521 2.826,1.763 3.347,3.347l1.058,3.216c0.226,0.688 1.199,0.688 1.425,0l1.058,-3.216c0.521,-1.584 1.763,-2.826 3.347,-3.347l3.216,-1.058c0.688,-0.226 0.688,-1.199 0,-1.425l-3.216,-1.058c-1.584,-0.521 -2.826,-1.763 -3.347,-3.347z" fill="#ffffff"></path><path d="M57.417,57.377c-0.55,0 -1.016,-0.338 -1.188,-0.86l-1.057,-3.216c-0.47,-1.427 -1.603,-2.559 -3.029,-3.028l-3.216,-1.058c-0.522,-0.172 -0.859,-0.638 -0.859,-1.188c0,-0.55 0.337,-1.016 0.859,-1.188l3.216,-1.058c1.427,-0.469 2.56,-1.602 3.029,-3.028l1.058,-3.216c0.171,-0.521 0.637,-0.859 1.187,-0.859c0.551,0 1.017,0.337 1.188,0.859l1.059,3.215c0.47,1.427 1.602,2.559 3.028,3.028l3.216,1.058c0.522,0.172 0.86,0.638 0.86,1.188c0,0.55 -0.338,1.016 -0.86,1.188l-3.216,1.058c-1.428,0.469 -2.56,1.601 -3.028,3.028l-1.059,3.216c-0.171,0.524 -0.637,0.861 -1.188,0.861zM57.417,39.679c-0.054,0 -0.187,0.017 -0.237,0.171l-1.058,3.216c-0.568,1.728 -1.938,3.098 -3.666,3.666l-3.216,1.058c-0.155,0.051 -0.172,0.183 -0.172,0.238c0,0.054 0.017,0.187 0.172,0.237l3.216,1.058c1.728,0.568 3.098,1.938 3.666,3.666l1.058,3.216c0.052,0.155 0.184,0.172 0.237,0.172c0.055,0 0.187,-0.017 0.237,-0.172l1.06,-3.217c0.567,-1.727 1.938,-3.097 3.665,-3.666l3.216,-1.058c0.156,-0.051 0.173,-0.183 0.173,-0.237c0,-0.055 -0.017,-0.187 -0.173,-0.238l-3.216,-1.058c-1.728,-0.568 -3.098,-1.939 -3.665,-3.666l-1.059,-3.216c-0.051,-0.153 -0.183,-0.17 -0.238,-0.17z" fill="#000000"></path><path d="M45.192,54.405c-0.226,-0.687 -1.199,-0.687 -1.425,0l-0.13,0.394c-0.521,1.584 -1.763,2.826 -3.347,3.347l-0.394,0.13c-0.688,0.226 -0.688,1.199 0,1.425l0.394,0.13c1.584,0.521 2.826,1.763 3.347,3.347l0.13,0.395c0.226,0.688 1.199,0.688 1.425,0l0.13,-0.395c0.521,-1.584 1.763,-2.826 3.347,-3.347l0.394,-0.13c0.688,-0.226 0.688,-1.199 0,-1.425l-0.394,-0.13c-1.584,-0.521 -2.826,-1.763 -3.347,-3.347z" fill="#ffffff"></path><path d="M44.48,64.589c-0.551,0 -1.017,-0.338 -1.188,-0.86l-0.129,-0.395c-0.47,-1.427 -1.603,-2.559 -3.029,-3.028l-0.394,-0.13c-0.522,-0.171 -0.86,-0.637 -0.86,-1.187c0,-0.55 0.338,-1.016 0.86,-1.188l0.394,-0.129c1.427,-0.47 2.56,-1.602 3.029,-3.029l0.13,-0.395c0.171,-0.521 0.637,-0.858 1.188,-0.858c0.549,0 1.016,0.337 1.187,0.858l0.13,0.394c0.47,1.427 1.603,2.56 3.029,3.029l0.394,0.13c0.522,0.171 0.859,0.638 0.859,1.188c0,0.549 -0.337,1.016 -0.859,1.188l-0.394,0.129c-1.427,0.47 -2.56,1.602 -3.029,3.029l-0.13,0.395c-0.172,0.521 -0.638,0.859 -1.188,0.859zM44.48,54.39c-0.055,0 -0.188,0.017 -0.238,0.171l-0.13,0.395c-0.568,1.727 -1.938,3.097 -3.666,3.666l-0.394,0.129c-0.156,0.052 -0.173,0.184 -0.173,0.238c0,0.054 0.017,0.186 0.173,0.237l0.394,0.13c1.728,0.568 3.098,1.938 3.666,3.666l0.13,0.395c0.052,0.155 0.184,0.172 0.238,0.172c0.054,0 0.186,-0.017 0.236,-0.172l0.131,-0.396c0.568,-1.728 1.939,-3.098 3.666,-3.666l0.394,-0.129c0.155,-0.051 0.172,-0.184 0.172,-0.238c0,-0.055 -0.017,-0.187 -0.172,-0.238l-0.394,-0.13c-1.727,-0.568 -3.098,-1.938 -3.666,-3.666l-0.13,-0.394c-0.05,-0.153 -0.183,-0.17 -0.237,-0.17z" fill="#000000"></path><path d="M65,29.4c3.639,0 6.6,2.961 6.6,6.6v28c0,3.639 -2.961,6.6 -6.6,6.6h-28c-3.639,0 -6.6,-2.961 -6.6,-6.6v-28c0,-3.639 2.961,-6.6 6.6,-6.6h28M65,28h-28c-4.418,0 -8,3.582 -8,8v28c0,4.418 3.582,8 8,8h28c4.418,0 8,-3.582 8,-8v-28c0,-4.418 -3.582,-8 -8,-8z" fill="#000000"></path><path d="M69.5,41c-0.276,0 -0.5,-0.224 -0.5,-0.5v-4c0,-2.481 -2.019,-4.5 -4.5,-4.5h-11c-0.276,0 -0.5,-0.224 -0.5,-0.5c0,-0.276 0.224,-0.5 0.5,-0.5h11c3.032,0 5.5,2.467 5.5,5.5v4c0,0.276 -0.224,0.5 -0.5,0.5z" fill="#000000"></path><path d="M69.5,57c-0.276,0 -0.5,-0.224 -0.5,-0.5v-9.016c0,-0.276 0.224,-0.5 0.5,-0.5c0.276,0 0.5,0.224 0.5,0.5v9.016c0,0.276 -0.224,0.5 -0.5,0.5z" fill="#000000"></path><path d="M64.5,69h-27c-3.032,0 -5.5,-2.467 -5.5,-5.5v-27c0,-3.033 2.468,-5.5 5.5,-5.5h7c0.276,0 0.5,0.224 0.5,0.5c0,0.276 -0.224,0.5 -0.5,0.5h-7c-2.481,0 -4.5,2.019 -4.5,4.5v27c0,2.481 2.019,4.5 4.5,4.5h27c2.481,0 4.5,-2.019 4.5,-4.5v-4c0,-0.276 0.224,-0.5 0.5,-0.5c0.276,0 0.5,0.224 0.5,0.5v4c0,3.033 -2.468,5.5 -5.5,5.5z" fill="#000000"></path><path d="M50.5,32h-3c-0.276,0 -0.5,-0.224 -0.5,-0.5c0,-0.276 0.224,-0.5 0.5,-0.5h3c0.276,0 0.5,0.224 0.5,0.5c0,0.276 -0.224,0.5 -0.5,0.5z" fill="#000000"></path><path d="M18.5,51h-1c-0.276,0 -0.5,-0.224 -0.5,-0.5c0,-0.276 0.224,-0.5 0.5,-0.5h1c0.276,0 0.5,0.224 0.5,0.5c0,0.276 -0.223,0.5 -0.5,0.5z" fill="#ffffff"></path><path d="M23.491,53h-8.991c-0.276,0 -0.5,-0.224 -0.5,-0.5c0,-0.276 0.224,-0.5 0.5,-0.5h8.991c0.276,0 0.5,0.224 0.5,0.5c0,0.276 -0.224,0.5 -0.5,0.5z" fill="#ffffff"></path><path d="M18.5,46c-0.177,0 -0.823,0 -1,0c-0.276,0 -0.5,0.224 -0.5,0.5c0,0.276 0.224,0.5 0.5,0.5c0.177,0 0.823,0 1,0c0.276,0 0.5,-0.224 0.5,-0.5c0,-0.276 -0.224,-0.5 -0.5,-0.5z" fill="#ffffff"></path><path d="M18.5,48c-0.177,0 -4.823,0 -5,0c-0.276,0 -0.5,0.224 -0.5,0.5c0,0.276 0.224,0.5 0.5,0.5c0.177,0 4.823,0 5,0c0.276,0 0.5,-0.224 0.5,-0.5c0,-0.276 -0.224,-0.5 -0.5,-0.5z" fill="#ffffff"></path><path d="M23.5,50c-0.177,0 -2.823,0 -3,0c-0.276,0 -0.5,0.224 -0.5,0.5c0,0.276 0.224,0.5 0.5,0.5c0.177,0 2.823,0 3,0c0.276,0 0.5,-0.224 0.5,-0.5c0,-0.276 -0.224,-0.5 -0.5,-0.5z" fill="#ffffff"></path><path d="M87.5,65h-10c-0.276,0 -0.5,-0.224 -0.5,-0.5c0,-0.276 0.224,-0.5 0.5,-0.5h10c0.276,0 0.5,0.224 0.5,0.5c0,0.276 -0.224,0.5 -0.5,0.5z" fill="#ffffff"></path><path d="M91.5,65h-2c-0.276,0 -0.5,-0.224 -0.5,-0.5c0,-0.276 0.224,-0.5 0.5,-0.5h2c0.276,0 0.5,0.224 0.5,0.5c0,0.276 -0.224,0.5 -0.5,0.5z" fill="#ffffff"></path><path d="M96.5,67h-10c-0.276,0 -0.5,-0.224 -0.5,-0.5c0,-0.276 0.224,-0.5 0.5,-0.5h10c0.276,0 0.5,0.224 0.5,0.5c0,0.276 -0.223,0.5 -0.5,0.5z" fill="#ffffff"></path><path d="M84.5,67h-1c-0.276,0 -0.5,-0.224 -0.5,-0.5c0,-0.276 0.224,-0.5 0.5,-0.5h1c0.276,0 0.5,0.224 0.5,0.5c0,0.276 -0.224,0.5 -0.5,0.5z" fill="#ffffff"></path><path d="M81.375,67h-1.875c-0.276,0 -0.5,-0.224 -0.5,-0.5c0,-0.276 0.224,-0.5 0.5,-0.5h1.875c0.276,0 0.5,0.224 0.5,0.5c0,0.276 -0.224,0.5 -0.5,0.5z" fill="#ffffff"></path><path d="M90.5,63h-5c-0.276,0 -0.5,-0.224 -0.5,-0.5c0,-0.276 0.224,-0.5 0.5,-0.5h5c0.276,0 0.5,0.224 0.5,0.5c0,0.276 -0.223,0.5 -0.5,0.5z" fill="#ffffff"></path><path d="M87.5,69h-2c-0.276,0 -0.5,-0.224 -0.5,-0.5c0,-0.276 0.224,-0.5 0.5,-0.5h2c0.276,0 0.5,0.224 0.5,0.5c0,0.276 -0.224,0.5 -0.5,0.5z" fill="#ffffff"></path><path d="M80.875,34.5c0,0 3.64,0 6.125,0c2.485,0 4.5,-2.015 4.5,-4.5c0,-2.333 -1.782,-4.229 -4.055,-4.455c0.022,-0.181 0.055,-0.358 0.055,-0.545c0,-2.485 -2.015,-4.5 -4.5,-4.5c-1.438,0 -2.703,0.686 -3.527,1.736c-0.14,-2.636 -2.302,-4.736 -4.973,-4.736c-2.761,0 -5,2.239 -5,5c0,0.446 0.077,0.87 0.187,1.282c-0.642,-0.777 -1.601,-1.282 -2.687,-1.282c-1.781,0 -3.234,1.335 -3.455,3.055c-0.181,-0.022 -0.358,-0.055 -0.545,-0.055c-2.485,0 -4.5,2.015 -4.5,4.5c0,2.485 2.015,4.5 4.5,4.5c2.485,0 9.5,0 9.5,0h5.375v0.5h3z" fill="#f7f7f7"></path><path d="M74.5,17c-3.033,0 -5.5,2.467 -5.5,5.5c0,0.016 0,0.031 0,0.047c-0.602,-0.355 -1.29,-0.547 -2,-0.547c-1.831,0 -3.411,1.261 -3.858,3.005c-0.047,-0.003 -0.094,-0.005 -0.142,-0.005c-2.757,0 -5,2.243 -5,5c0,2.757 2.243,5 5,5h14.875c0.276,0 0.5,-0.224 0.5,-0.5c0,-0.276 -0.224,-0.5 -0.5,-0.5h-14.875c-2.206,0 -4,-1.794 -4,-4c0,-2.206 1.794,-4 4,-4c0.117,0 0.23,0.017 0.343,0.032l0.141,0.019c0.021,0.003 0.041,0.004 0.062,0.004c0.246,0 0.462,-0.185 0.495,-0.437c0.191,-1.493 1.463,-2.618 2.959,-2.618c0.885,0 1.723,0.401 2.301,1.1c0.098,0.118 0.241,0.182 0.386,0.182c0.078,0 0.156,-0.018 0.228,-0.056c0.209,-0.107 0.314,-0.346 0.254,-0.573c-0.115,-0.435 -0.169,-0.801 -0.169,-1.153c0,-2.481 2.019,-4.5 4.5,-4.5c2.381,0 4.347,1.872 4.474,4.263c0.011,0.208 0.15,0.387 0.349,0.45c0.05,0.016 0.101,0.024 0.152,0.024c0.15,0 0.296,-0.069 0.392,-0.192c0.771,-0.982 1.912,-1.545 3.133,-1.545c2.206,0 4,1.794 4,4c0,0.117 -0.017,0.23 -0.032,0.343l-0.019,0.141c-0.016,0.134 0.022,0.268 0.106,0.373c0.084,0.105 0.207,0.172 0.34,0.185c2.056,0.205 3.605,1.907 3.605,3.958c0,2.206 -1.794,4 -4,4h-6.125c-0.276,0 -0.5,0.224 -0.5,0.5c0,0.276 0.224,0.5 0.5,0.5h6.125c2.757,0 5,-2.243 5,-5c0,-2.397 -1.689,-4.413 -4.003,-4.877c0.002,-0.041 0.003,-0.082 0.003,-0.123c0,-2.757 -2.243,-5 -5,-5c-1.176,0 -2.293,0.416 -3.183,1.164c-0.598,-2.404 -2.762,-4.164 -5.317,-4.164z" fill="#000000"></path><path d="M73,24c-1.403,0 -2.609,0.999 -2.913,2.341c-0.367,-0.222 -0.786,-0.341 -1.212,-0.341c-1.202,0 -2.198,0.897 -2.353,2.068c-0.203,-0.046 -0.396,-0.068 -0.584,-0.068c-1.529,0 -2.811,1.2 -2.918,2.732c-0.01,0.138 0.094,0.258 0.231,0.268c0.006,0 0.012,0 0.018,0c0.13,0 0.24,-0.101 0.249,-0.232c0.089,-1.271 1.151,-2.268 2.419,-2.268c0.229,0 0.47,0.042 0.738,0.127c0.022,0.007 0.045,0.01 0.067,0.01c0.055,0 0.11,-0.02 0.156,-0.054c0.064,-0.046 0.102,-0.128 0.102,-0.208c0,-1.034 0.841,-1.875 1.875,-1.875c0.447,0 0.885,0.168 1.231,0.473c0.047,0.041 0.106,0.063 0.165,0.063c0.032,0 0.063,-0.006 0.093,-0.019c0.088,-0.035 0.148,-0.117 0.155,-0.212c0.104,-1.293 1.193,-2.305 2.481,-2.305c0.208,0 0.425,0.034 0.682,0.107c0.023,0.007 0.047,0.01 0.07,0.01c0.109,0 0.207,-0.073 0.239,-0.182c0.038,-0.133 -0.039,-0.271 -0.172,-0.309c-0.302,-0.086 -0.563,-0.126 -0.819,-0.126z" fill="#000000"></path><path d="M86.883,25.5c-1.326,0 -2.508,0.897 -2.874,2.182c-0.038,0.133 0.039,0.271 0.172,0.309c0.024,0.006 0.047,0.009 0.069,0.009c0.109,0 0.209,-0.072 0.24,-0.182c0.305,-1.07 1.289,-1.818 2.393,-1.818c0.117,0 0.23,0.014 0.342,0.029c0.012,0.002 0.023,0.003 0.035,0.003c0.121,0 0.229,-0.092 0.246,-0.217c0.019,-0.137 -0.077,-0.263 -0.214,-0.281c-0.134,-0.018 -0.27,-0.034 -0.409,-0.034z" fill="#000000"></path></g></g></svg>